<svg width="32" height="32" viewBox="0 0 32 32" fill="none" xmlns="http://www.w3.org/2000/svg">
<path d="M16 16L12.5359 14L11.3762 17.3096L9.07176 22.5833L6.75741 14.6221L5.60766 10L2.14355 8V11.9375V13.9062V15.875V17.8438V19.8125V23.75L5.60766 25.8125V21.8594V20.5625L6.03488 22.1118L7.33971 26.8438L9.07176 27.875L10.8038 28.9062L12.0971 25.6939L12.5359 24.6042V25.9531V29.9375L16 32V28V24V20V16Z" fill="#0099FF"/>
<path d="M19.4641 30L16 32V28V24V20V16L19.4641 14L22.9282 12L26.3923 10L29.8564 8V12V14L26.3923 16V14L19.4641 18V26L26.3923 22V20L29.8564 18V20V24L26.3923 26L22.9282 28L19.4641 30Z" fill="#0000FF"/>
<path d="M26.3923 10L22.9282 12L19.4641 14L16 16L12.5359 14L10.8038 13L9.07176 12L7.33971 11L5.60766 10L2.14355 8L5.60766 6L9.07176 4L12.5359 2L16 0L19.4641 2L21.1961 3L17.732 5L16 4L12.5359 6L9.07176 8L16 12L22.9282 8L21.1961 7L24.6602 5L26.3923 6L29.8564 8L26.3923 10Z" fill="#00FFFF"/>
</svg>
