<svg width="1960" height="1080" viewBox="0 0 1960 1080" fill="none" xmlns="http://www.w3.org/2000/svg">
<rect width="1960" height="1080" fill="white"/>
<path d="M568 540L537.689 522.5L527.542 551.459L507.378 597.604L487.128 527.944L477.067 487.5L446.756 470V504.453V521.68V538.906V556.133V573.359V607.812L477.067 625.859V591.27V579.922L480.806 593.478L492.223 634.883L507.378 643.906L522.534 652.93L533.85 624.822L537.689 615.286V627.09V661.953L568 680V645V610V575V540Z" fill="#0099FF"/>
<path d="M598.311 662.5L568 680V645V610V575V540L598.311 522.5L628.622 505L658.933 487.5L689.244 470V505V522.5L658.933 540V522.5L598.311 557.5V627.5L658.933 592.5V575L689.244 557.5V575V610L658.933 627.5L628.622 645L598.311 662.5Z" fill="#0000FF"/>
<path d="M658.933 487.5L628.622 505L598.311 522.5L568 540L537.689 522.5L522.534 513.75L507.378 505L492.223 496.25L477.067 487.5L446.756 470L477.067 452.5L507.378 435L537.689 417.5L568 400L598.311 417.5L613.466 426.25L583.155 443.75L568 435L537.689 452.5L507.378 470L568 505L628.622 470L613.466 461.25L643.777 443.75L658.933 452.5L689.244 470L658.933 487.5Z" fill="#00FFFF"/>
<path d="M725.92 663V432.6H767.2L856.48 538.84L945.44 432.6H987.04V663H952.16V479L856.48 592.92L760.48 479V663H725.92ZM1064.4 663C1056.72 663 1049.68 661.187 1043.28 657.56C1037.09 653.72 1032.08 648.707 1028.24 642.52C1024.61 636.12 1022.8 629.08 1022.8 621.4V474.2C1022.8 466.52 1024.61 459.587 1028.24 453.4C1032.08 447 1037.09 441.987 1043.28 438.36C1049.68 434.52 1056.72 432.6 1064.4 432.6H1252.56V467.16H1069.2C1065.78 467.16 1062.9 468.333 1060.56 470.68C1058.42 472.813 1057.36 475.587 1057.36 479V616.6C1057.36 620.013 1058.42 622.893 1060.56 625.24C1062.9 627.373 1065.78 628.44 1069.2 628.44H1252.56V663H1064.4ZM1327.52 663C1319.84 663 1312.8 661.187 1306.4 657.56C1300.21 653.72 1295.2 648.707 1291.36 642.52C1287.73 636.12 1285.92 629.08 1285.92 621.4V474.2C1285.92 466.52 1287.73 459.587 1291.36 453.4C1295.2 447 1300.21 441.987 1306.4 438.36C1312.8 434.52 1319.84 432.6 1327.52 432.6H1515.68V467.16H1332.32C1328.91 467.16 1326.03 468.333 1323.68 470.68C1321.55 472.813 1320.48 475.587 1320.48 479V616.6C1320.48 620.013 1321.55 622.893 1323.68 625.24C1326.03 627.373 1328.91 628.44 1332.32 628.44H1515.68V663H1327.52Z" fill="#0066CC"/>
</svg>
